<svg height="512" viewBox="0 0 64 64" width="512" xmlns="http://www.w3.org/2000/svg"><g id="Layer_13" data-name="Layer 13"><path d="m54.44 38.39a1 1 0 0 0 -.9-.67 13.39 13.39 0 0 1 -8.22-23.5 1 1 0 0 0 -.6-1.76 14.94 14.94 0 0 0 -5.72.86 15.35 15.35 0 0 0 -10.31 13.84 1 1 0 0 0 .67 1 7.46 7.46 0 0 1 5 7 8.46 8.46 0 0 1 0 .87 1 1 0 0 0 1.36 1 5.85 5.85 0 0 1 2.17-.4 6.46 6.46 0 0 1 6.4 5.65 1 1 0 0 0 1 .88h.06a14 14 0 0 0 2.26-.33 15.32 15.32 0 0 0 6.65-3.39 1 1 0 0 0 .18-1.05z" fill="#bdbdbd"/><path d="m46.18 42.52a8.44 8.44 0 0 0 -8.38-7.41 9.17 9.17 0 0 0 -1.49.13 9.46 9.46 0 0 0 -6.31-8.53 9.3 9.3 0 0 0 -3.14-.54 9.44 9.44 0 0 0 -9.13 7 9.43 9.43 0 0 0 -8.1 10.94 9.63 9.63 0 0 0 9.56 7.89h18.61a8.46 8.46 0 0 0 8.45-8.44 7 7 0 0 0 -.07-1.04z" fill="#9e9e9e"/></g></svg>