<svg height="512" viewBox="0 0 64 64" width="512" xmlns="http://www.w3.org/2000/svg"><g id="Layer_11" data-name="Layer 11"><path d="m38.6 21.94a12.17 12.17 0 0 0 -22.92 5.59 10.76 10.76 0 0 0 -2.28-.24 10.85 10.85 0 0 0 -10.74 12.46 11.07 11.07 0 0 0 11.05 9.25h18a1 1 0 0 0 0-2 8.21 8.21 0 0 1 -.36-16.41 1 1 0 0 0 .94-.82 8.29 8.29 0 0 1 5.71-6.4 1 1 0 0 0 .59-1.43z" fill="#bdbdbd"/><path d="m53.62 30.84a9.12 9.12 0 0 0 -3 .07c0-.17 0-.35 0-.53a10.33 10.33 0 0 0 -9.24-9.38 10.17 10.17 0 0 0 -4 .41 10.34 10.34 0 0 0 -6.9 7.2 10.29 10.29 0 0 0 -6.69 3.68 10.17 10.17 0 0 0 -2.17 8.12 10.42 10.42 0 0 0 10.38 8.59h20.33a9.15 9.15 0 0 0 9.13-9.06 9.24 9.24 0 0 0 -7.84-9.1z" fill="#cfd8dc"/></g></svg>