<svg height="512" viewBox="0 0 64 64" width="512" xmlns="http://www.w3.org/2000/svg"><g id="Layer_6" data-name="Layer 6"><path d="m42.83 27.75a8.85 8.85 0 0 0 -1.71.16 10.21 10.21 0 0 0 -20.12-2.25 10.21 10.21 0 0 0 1.25 20.34h20.58a9.13 9.13 0 1 0 0-18.25z" fill="#b0bec5"/><g fill="#cfd8dc"><path d="m16.25 36h-8.25a1 1 0 0 1 0-2h8.25a1 1 0 0 1 0 2z"/><path d="m43.75 36h-20.62a1 1 0 1 1 0-2h20.62a1 1 0 0 1 0 2z"/><path d="m24.5 31h-8.25a1 1 0 0 1 0-2h8.25a1 1 0 0 1 0 2z"/><path d="m52 31h-20.62a1 1 0 1 1 0-2h20.62a1 1 0 0 1 0 2z"/><path d="m16.25 26h-8.25a1 1 0 0 1 0-2h8.25a1 1 0 0 1 0 2z"/><path d="m43.75 26h-20.62a1 1 0 1 1 0-2h20.62a1 1 0 0 1 0 2z"/><path d="m24.5 41h-8.25a1 1 0 0 1 0-2h8.25a1 1 0 0 1 0 2z"/><path d="m52 41h-20.62a1 1 0 1 1 0-2h20.62a1 1 0 0 1 0 2z"/><path d="m52 26h-2.75a1 1 0 0 1 0-2h2.75a1 1 0 0 1 0 2z"/><path d="m52 36h-2.75a1 1 0 0 1 0-2h2.75a1 1 0 0 1 0 2z"/><path d="m10.75 31h-2.75a1 1 0 0 1 0-2h2.75a1 1 0 0 1 0 2z"/><path d="m10.75 41h-2.75a1 1 0 0 1 0-2h2.75a1 1 0 0 1 0 2z"/></g></g></svg>