<svg height="512" viewBox="0 0 64 64" width="512" xmlns="http://www.w3.org/2000/svg"><g id="Layer_7" data-name="Layer 7"><path d="m42.83 18.84a8.85 8.85 0 0 0 -1.71.16 10.21 10.21 0 0 0 -20.12-2.26 10.21 10.21 0 0 0 1.22 20.35h20.61a9.13 9.13 0 1 0 0-18.25z" fill="#cfd8dc"/><g fill="#039be5"><path d="m26.58 50.38-2.83-2.83a1 1 0 0 0 -1.42 0l-2.82 2.83a1 1 0 0 0 0 1.41l2.82 2.83a1 1 0 0 0 .71.29 1 1 0 0 0 .71-.29l2.83-2.83a1 1 0 0 0 .29-.7 1 1 0 0 0 -.29-.71z"/><path d="m46.58 50.38-2.83-2.83a1 1 0 0 0 -1.42 0l-2.82 2.83a1 1 0 0 0 0 1.41l2.82 2.83a1 1 0 0 0 .71.29 1 1 0 0 0 .71-.29l2.83-2.83a1 1 0 0 0 .29-.7 1 1 0 0 0 -.29-.71z"/><path d="m36.58 42.38-2.83-2.83a1 1 0 0 0 -1.42 0l-2.82 2.83a1 1 0 0 0 0 1.41l2.82 2.83a1 1 0 0 0 .71.29 1 1 0 0 0 .71-.29l2.83-2.83a1 1 0 0 0 .29-.7 1 1 0 0 0 -.29-.71z"/><path d="m23 44.09a1 1 0 0 1 -1-1v-2a1 1 0 0 1 2 0v2a1 1 0 0 1 -1 1z"/><path d="m43 44.09a1 1 0 0 1 -1-1v-2a1 1 0 0 1 2 0v2a1 1 0 0 1 -1 1z"/><path d="m33 53.09a1 1 0 0 1 -1-1v-2a1 1 0 0 1 2 0v2a1 1 0 0 1 -1 1z"/></g></g></svg>