<svg viewBox="0 0 64 64" xmlns="http://www.w3.org/2000/svg"><g id="morning_snow" data-name="morning snow"><path d="m25 10a1 1 0 0 1 -1-1v-4a1 1 0 0 1 2 0v4a1 1 0 0 1 -1 1z" fill="#ffd600"/><path d="m34.65 14.39a1 1 0 0 1 -.71-.29 1 1 0 0 1 0-1.41l2.83-2.83a1 1 0 0 1 1.41 1.41l-2.83 2.83a1 1 0 0 1 -.7.29z" fill="#ffd600"/><path d="m12.6 36.43a1 1 0 0 1 -.7-.29 1 1 0 0 1 0-1.41l2.83-2.83a1 1 0 0 1 1.41 1.41l-2.83 2.83a1 1 0 0 1 -.71.29z" fill="#ffd600"/><path d="m11 24h-4a1 1 0 1 1 0-2h4a1 1 0 0 1 0 2z" fill="#ffd600"/><path d="m15.43 14.39a1 1 0 0 1 -.7-.29l-2.83-2.83a1 1 0 0 1 1.41-1.41l2.83 2.83a1 1 0 0 1 0 1.41 1 1 0 0 1 -.71.29z" fill="#ffd600"/><circle cx="25" cy="23" fill="#ffd600" r="9"/><path d="m49 24.65a10.21 10.21 0 0 0 -9.92-7.65 10.25 10.25 0 0 0 -10.21 9.91 8.67 8.67 0 0 0 -1.7-.16 9.13 9.13 0 0 0 0 18.25h20.58a10.21 10.21 0 0 0 1.25-20.35z" fill="#9e9e9e"/><g fill="#cfd8dc"><circle cx="28" cy="49" r="1"/><circle cx="28" cy="59" r="1"/><circle cx="38" cy="59" r="1"/><circle cx="48" cy="59" r="1"/><circle cx="33" cy="54" r="1"/><circle cx="43" cy="54" r="1"/><circle cx="38" cy="49" r="1"/><circle cx="48" cy="49" r="1"/></g></g></svg>