<svg height="512" viewBox="0 0 64 64" width="512" xmlns="http://www.w3.org/2000/svg"><g id="Layer_12" data-name="Layer 12"><path d="m33.66 27.78a9 9 0 1 0 -12.72 10.77.91.91 0 0 0 .45.11 1 1 0 0 0 .71-.29 7.06 7.06 0 0 1 5.07-2.12 6.85 6.85 0 0 1 2.4.43 1 1 0 0 0 1-.13 1 1 0 0 0 .4-.89c0-.32-.05-.63-.05-.95a8.07 8.07 0 0 1 2.48-5.91 1 1 0 0 0 .26-1.02z" fill="#ffd600"/><path d="m56.54 37.6a10.19 10.19 0 0 0 -7.57-5 10.21 10.21 0 0 0 -20.09 2.26 8.77 8.77 0 0 0 -1.71-.16 9.07 9.07 0 0 0 -6.49 2.71 9.29 9.29 0 0 0 -1.68 10.7 8.52 8.52 0 0 0 7.73 4.89h21.54a9.47 9.47 0 0 0 8.47-5.18 10.56 10.56 0 0 0 -.2-10.22z" fill="#cfd8dc"/><g fill="#ffd600"><path d="m25 17.5a1 1 0 0 1 -1-1v-4a1 1 0 0 1 2 0v4a1 1 0 0 1 -1 1z"/><path d="m34.65 21.89a1 1 0 0 1 -.71-.29 1 1 0 0 1 0-1.41l2.83-2.83a1 1 0 1 1 1.41 1.41l-2.82 2.83a1 1 0 0 1 -.71.29z"/><path d="m12.61 43.93a1 1 0 0 1 -.71-.29 1 1 0 0 1 0-1.41l2.83-2.83a1 1 0 0 1 1.41 1.41l-2.83 2.83a1 1 0 0 1 -.7.29z"/><path d="m11 31.5h-4a1 1 0 1 1 0-2h4a1 1 0 0 1 0 2z"/><path d="m15.44 21.89a1 1 0 0 1 -.71-.29l-2.83-2.83a1 1 0 1 1 1.41-1.41l2.83 2.83a1 1 0 0 1 0 1.41 1 1 0 0 1 -.7.29z"/></g></g></svg>