<svg height="512" viewBox="0 0 64 64" width="512" xmlns="http://www.w3.org/2000/svg"><g id="Layer_15" data-name="Layer 15"><path d="m33.66 18.27a9 9 0 1 0 -12.72 10.78 1 1 0 0 0 .45.11 1 1 0 0 0 .71-.29 7.06 7.06 0 0 1 5.07-2.12 6.85 6.85 0 0 1 2.4.43 1 1 0 0 0 1-.16 1 1 0 0 0 .39-.91c0-.3-.05-.6-.05-.9a8.12 8.12 0 0 1 2.53-5.92 1 1 0 0 0 .22-1.02z" fill="#ffd600"/><path d="m49 22.65a10.21 10.21 0 0 0 -9.92-7.65 10.25 10.25 0 0 0 -10.21 9.91 8.67 8.67 0 0 0 -1.7-.16 9.13 9.13 0 0 0 0 18.25h20.58a10.21 10.21 0 0 0 1.25-20.35z" fill="#455a64"/><g fill="#ffd600"><path d="m25 8a1 1 0 0 1 -1-1v-4a1 1 0 0 1 2 0v4a1 1 0 0 1 -1 1z"/><path d="m34.65 12.39a1 1 0 0 1 -.71-.29 1 1 0 0 1 0-1.41l2.83-2.83a1 1 0 1 1 1.41 1.41l-2.83 2.83a1 1 0 0 1 -.7.29z"/><path d="m12.6 34.43a1 1 0 0 1 -.7-.29 1 1 0 0 1 0-1.41l2.83-2.83a1 1 0 1 1 1.41 1.41l-2.83 2.83a1 1 0 0 1 -.71.29z"/><path d="m11 22h-4a1 1 0 1 1 0-2h4a1 1 0 0 1 0 2z"/><path d="m15.43 12.39a1 1 0 0 1 -.7-.29l-2.83-2.83a1 1 0 1 1 1.41-1.41l2.83 2.83a1 1 0 0 1 0 1.41 1 1 0 0 1 -.71.29z"/></g><path d="m38 58a1 1 0 0 1 -1-1v-8a1 1 0 0 1 2 0v8a1 1 0 0 1 -1 1z" fill="#0091ea"/><path d="m30 52a1 1 0 0 1 -1-1v-4a1 1 0 0 1 2 0v4a1 1 0 0 1 -1 1z" fill="#0091ea"/><path d="m46 52a1 1 0 0 1 -1-1v-4a1 1 0 0 1 2 0v4a1 1 0 0 1 -1 1z" fill="#0091ea"/><path d="m46 62a1 1 0 0 1 -1-1v-4a1 1 0 0 1 2 0v4a1 1 0 0 1 -1 1z" fill="#0091ea"/><path d="m30 62a1 1 0 0 1 -1-1v-4a1 1 0 0 1 2 0v4a1 1 0 0 1 -1 1z" fill="#0091ea"/></g></svg>