<svg enable-background="new 0 0 520 520" height="512" viewBox="0 0 520 520" width="512" xmlns="http://www.w3.org/2000/svg"><g id="_x31_116_x2C__Document_x2C__Office_x2C__Paper_x2C__Paper_Clip_x2C_"><path d="m362.071 217.929c-20.681-20.681-32.071-48.179-32.071-77.426v-30.503h20c22.056 0 40-17.944 40-40v-50c0-5.523-4.478-10-10-10h-240c-5.523 0-10 4.477-10 10v50c0 22.056 17.944 40 40 40h20v30.503c0 29.248-11.39 56.745-32.071 77.426-24.458 24.459-37.929 56.978-37.929 91.568v10.503c0 5.522 4.477 10 10 10h81.979l38.259 172.169c1.017 4.576 5.075 7.831 9.762 7.831s8.745-3.255 9.762-7.831l38.259-172.169h81.979c5.522 0 10-4.478 10-10v-10.503c0-34.59-13.47-67.109-37.929-91.568zm-212.071-147.929h190c5.522 0 10-4.477 10-10s-4.478-10-10-10h-190v-20h220v40c0 11.028-8.972 20-20 20-39.173 0-140.542 0-180 0-11.027 0-20-8.972-20-20zm110 383.902-27.533-123.902h55.067zm120-143.902c-48.062 0-192.065 0-240 0 .03-.704-.22-9.119 1.726-20h198.274c5.522 0 10-4.478 10-10s-4.478-10-10-10h-192.69c5.428-14.058 13.786-26.953 24.762-37.929 24.458-24.459 37.928-56.978 37.928-91.568v-30.503h100v20h-70c-5.523 0-10 4.477-10 10s4.477 10 10 10h70.342c2.232 31.013 15.379 59.864 37.586 82.071 20.682 20.681 32.072 48.178 32.072 77.426z"/></g></svg>