<svg height="512" viewBox="0 0 64 64" width="512" xmlns="http://www.w3.org/2000/svg"><g id="Layer_14" data-name="Layer 14"><path d="m49.65 20.33a10.21 10.21 0 0 0 -6.65-3.67 10.21 10.21 0 0 0 -20.09 2.25 9.13 9.13 0 1 0 -1.74 18.09h20.31a10.42 10.42 0 0 0 10.35-8.55 10.16 10.16 0 0 0 -2.18-8.12z" fill="#455a64"/><g fill="#0091ea"><path d="m32 52a1 1 0 0 1 -1-1v-8a1 1 0 0 1 2 0v8a1 1 0 0 1 -1 1z"/><path d="m24 46a1 1 0 0 1 -1-1v-4a1 1 0 0 1 2 0v4a1 1 0 0 1 -1 1z"/><path d="m40 46a1 1 0 0 1 -1-1v-4a1 1 0 0 1 2 0v4a1 1 0 0 1 -1 1z"/><path d="m40 56a1 1 0 0 1 -1-1v-4a1 1 0 0 1 2 0v4a1 1 0 0 1 -1 1z"/><path d="m24 56a1 1 0 0 1 -1-1v-4a1 1 0 0 1 2 0v4a1 1 0 0 1 -1 1z"/></g></g></svg>