<svg height="512" viewBox="0 0 64 64" width="512" xmlns="http://www.w3.org/2000/svg"><g id="Layer_21" fill="#ffd600" data-name="Layer 21"><circle cx="32" cy="32" r="9.04"/><path d="m32 19a1 1 0 0 1 -1-1v-4a1 1 0 0 1 2 0v4a1 1 0 0 1 -1 1z"/><path d="m41.61 23.39a1 1 0 0 1 -.71-.29 1 1 0 0 1 0-1.41l2.83-2.83a1 1 0 1 1 1.41 1.41l-2.83 2.83a1 1 0 0 1 -.7.29z"/><path d="m50 33h-4a1 1 0 0 1 0-2h4a1 1 0 0 1 0 2z"/><path d="m44.43 45.43a1 1 0 0 1 -.7-.29l-2.83-2.83a1 1 0 0 1 1.41-1.41l2.83 2.83a1 1 0 0 1 0 1.41 1 1 0 0 1 -.71.29z"/><path d="m32 51a1 1 0 0 1 -1-1v-4a1 1 0 0 1 2 0v4a1 1 0 0 1 -1 1z"/><path d="m19.57 45.43a1 1 0 0 1 -.71-.29 1 1 0 0 1 0-1.41l2.83-2.83a1 1 0 0 1 1.41 1.41l-2.83 2.83a1 1 0 0 1 -.7.29z"/><path d="m18 33h-4a1 1 0 0 1 0-2h4a1 1 0 0 1 0 2z"/><path d="m22.39 23.39a1 1 0 0 1 -.7-.29l-2.83-2.83a1 1 0 1 1 1.41-1.41l2.83 2.83a1 1 0 0 1 0 1.41 1 1 0 0 1 -.71.29z"/></g></svg>