<svg height="512" viewBox="0 0 64 64" width="512" xmlns="http://www.w3.org/2000/svg"><g id="Layer_10" data-name="Layer 10"><path d="m43.72 17.84a9.12 9.12 0 0 0 -3 .07c0-.17 0-.35 0-.53a10.2 10.2 0 0 0 -20-1.73 10.29 10.29 0 0 0 -6.69 3.68 10.17 10.17 0 0 0 -2.17 8.12 10.42 10.42 0 0 0 10.26 8.55h20.31a9.15 9.15 0 0 0 9.13-9.06 9.24 9.24 0 0 0 -7.84-9.1z" fill="#455a64"/><g fill="#ffeb3b"><path d="m36.59 41.48a1 1 0 0 0 -.85-.48h-2.74v-12.43a1 1 0 0 0 -1.89-.45l-6.75 13.43a1 1 0 0 0 .9 1.45h2.74v12.43a1 1 0 0 0 .77 1 .91.91 0 0 0 .23 0 1 1 0 0 0 .89-.55l6.75-13.43a1 1 0 0 0 -.05-.97z"/><path d="m17 55a.93.93 0 0 1 -.45-.11 1 1 0 0 1 -.44-1.34l2.31-4.55h-1.42a1 1 0 0 1 -.83-.44 1 1 0 0 1 -.1-.93l2-5a1 1 0 0 1 1.86.74l-1.41 3.63h1.48a1 1 0 0 1 .89 1.45l-3 6a1 1 0 0 1 -.89.55z"/><path d="m42 47a.93.93 0 0 1 -.45-.11 1 1 0 0 1 -.44-1.34l2.31-4.55h-1.42a1 1 0 0 1 -.83-.44 1 1 0 0 1 -.1-.93l2-5a1 1 0 1 1 1.86.74l-1.41 3.63h1.48a1 1 0 0 1 .89 1.45l-3 6a1 1 0 0 1 -.89.55z"/></g></g></svg>