<svg id="Layer_1" height="512" viewBox="0 0 125 125" width="512" xmlns="http://www.w3.org/2000/svg" data-name="Layer 1"><path d="m35.9 120.658a26.252 26.252 0 0 1 -26.222-26.223c0-13.881 23.613-45.776 24.618-47.127a2.073 2.073 0 0 1 3.209 0c1 1.351 24.619 33.246 24.619 47.127a26.253 26.253 0 0 1 -26.224 26.223zm0-68.766c-7.435 10.332-22.222 32.875-22.222 42.543a22.223 22.223 0 1 0 44.446 0c0-9.668-14.787-32.211-22.224-42.543z"/><path d="m31.575 110.147c-7.5-2.289-11.19-12.767-11.343-13.211l3.782-1.3-1.891.651 1.891-.653c.866 2.5 4.123 9.286 8.727 10.69z"/><path d="m94.7 86.173a20.643 20.643 0 0 1 -20.615-20.619c0-10.639 17.068-33.883 19.015-36.5a2.073 2.073 0 0 1 3.209 0c1.946 2.616 19.013 25.86 19.013 36.5a20.642 20.642 0 0 1 -20.622 20.619zm0-52.526c-5.79 8.115-16.615 24.753-16.615 31.907a16.619 16.619 0 1 0 33.237 0c0-7.154-10.822-23.793-16.622-31.907z"/><path d="m91.244 78.073c-5.991-1.826-8.9-10.095-9.02-10.446l3.776-1.306c.646 1.859 3.057 6.905 6.406 7.926z"/><path d="m60.124 46.794a15.293 15.293 0 0 1 -15.276-15.276c0-7.772 12.272-24.49 13.672-26.371a2.074 2.074 0 0 1 3.209 0c1.4 1.881 13.672 18.6 13.672 26.371a15.294 15.294 0 0 1 -15.277 15.276zm0-37.037c-4.183 5.931-11.276 16.985-11.276 21.761a11.277 11.277 0 0 0 22.553 0c-.001-4.776-7.093-15.83-11.277-21.761z"/><path d="m58.078 38.712c-4.473-1.363-6.582-7.156-6.807-7.812l3.78-1.306c.407 1.165 2.05 4.638 4.193 5.292z"/></svg>