<svg height="512" viewBox="0 0 64 64" width="512" xmlns="http://www.w3.org/2000/svg"><g id="Layer_2" data-name="Layer 2"><path d="m3.5 30a1 1 0 0 1 0-2h36a8.5 8.5 0 1 0 -9-8.48 8.59 8.59 0 0 0 .26 2.08 1 1 0 0 1 -1.94.49 10.5 10.5 0 1 1 10.73 7.91h-3z"/><path d="m42 55a7.5 7.5 0 0 1 -7.5-7.5 7.58 7.58 0 0 1 .23-1.83 1 1 0 0 1 1.21-.73 1 1 0 0 1 .73 1.22 5.5 5.5 0 1 0 5.62-4.16h-27.79a1 1 0 0 1 0-2h27.84a7.5 7.5 0 0 1 -.34 15z"/><path d="m22.5 36a1 1 0 0 1 0-2h33.26a4 4 0 1 0 -4.25-4 4 4 0 0 0 .12 1 1 1 0 0 1 -.73 1.22 1 1 0 0 1 -1.21-.73 6 6 0 1 1 6.13 4.51h-3.32z"/><path d="m11.5 36h-4a1 1 0 0 1 0-2h4a1 1 0 0 1 0 2z"/><path d="m22.5 26h-9a1 1 0 0 1 0-2h9a1 1 0 0 1 0 2z"/><path d="m29.5 46h-6a1 1 0 1 1 0-2h6a1 1 0 0 1 0 2z"/></g></svg>