<svg id="Capa_1" enable-background="new 0 0 512 512" height="512" viewBox="0 0 512 512" width="512" xmlns="http://www.w3.org/2000/svg"><g><path d="m419.006 198.774c0 109.787-88.998 198.784-198.774 198.784-34.727 0-67.384-8.911-95.797-24.57-61.399-33.831-102.988-99.165-102.988-174.214 0-87.483 56.516-161.77 135.047-188.328 0 0 0-.01.01 0 20.007-6.778 41.434-10.446 63.728-10.446 9.54 0 18.924.67 28.103 1.968 60.585 8.582 112.393 44.473 142.536 94.818 17.864 29.813 28.135 64.706 28.135 101.988z" fill="#b1e4f9"/><path d="m419.006 198.774c0-36.055-9.651-71.141-28.134-101.988-30.144-50.345-81.952-86.237-142.537-94.818-9.179-1.298-18.564-1.968-28.103-1.968-4.738 0-9.434.176-14.088.502 4.667.329 9.29.82 13.862 1.466 60.585 8.582 112.393 44.473 142.536 94.818 2.313 3.86 4.498 7.806 6.55 11.831 8.113 15.915.059 35.161-16.918 40.717-47.777 15.636-82.289 60.577-82.289 113.579 0 26.157 8.411 50.343 22.671 70.015 10.453 14.42 5.751 34.706-10.098 42.833-23.182 11.887-49.004 19.354-76.356 21.286 4.669.328 9.377.511 14.129.511 109.953 0 198.775-89.257 198.775-198.784z" fill="#90d8f9"/><path d="m490.553 262.914c0-56.362-46.084-101.96-102.627-101.171-53.27.744-97.257 43.314-99.632 96.536-2.249 50.396 32.387 93.109 79.183 103.433 3.012.665 5.186 3.287 5.186 6.371v18.314h33.417v-18.251c0-3.061 2.101-5.757 5.091-6.413 45.401-9.97 79.382-50.423 79.382-98.819z" fill="#544f57"/><path d="m387.926 161.743c-2.059.029-4.103.127-6.133.279 52.329 3.888 93.579 47.569 93.579 100.892 0 48.396-33.98 88.849-79.382 98.819-2.99.657-5.091 3.352-5.091 6.413 0 1.759-1.426 3.185-3.185 3.185h-15.052v15.066h18.236 15.181v-15.066-3.185c0-3.061 2.101-5.757 5.091-6.413 45.402-9.97 79.382-50.423 79.382-98.819.001-56.362-46.083-101.96-102.626-101.171z" fill="#454045"/><circle cx="389.371" cy="262.914" fill="#dfeaef" r="66.779"/><path d="m389.371 196.135c-3.256 0-6.453.245-9.585.695 32.338 4.65 57.195 32.459 57.195 66.084s-24.856 61.434-57.195 66.084c3.131.45 6.329.695 9.585.695 36.881 0 66.779-29.898 66.779-66.779s-29.898-66.779-66.779-66.779z" fill="#b4d0d5"/><path d="m389.371 512c-16.768 0-30.361-13.593-30.361-30.361v-89.584c0-3.124 2.533-5.657 5.657-5.657h49.409c3.124 0 5.657 2.533 5.657 5.657v89.584c0 16.768-13.594 30.361-30.362 30.361z" fill="#b1e4f9"/><path d="m404.552 386.398v95.241c0 14.147-9.676 26.034-22.771 29.405 2.426.624 4.969.957 7.59.957 16.768 0 30.361-13.593 30.361-30.361v-89.584c0-3.124-2.533-5.657-5.657-5.657h-9.523z" fill="#90d8f9"/><g><path d="m419.732 420.376h-60.722c-4.268 0-7.726-3.459-7.726-7.726s3.459-7.726 7.726-7.726h60.722c4.268 0 7.726 3.459 7.726 7.726s-3.458 7.726-7.726 7.726z" fill="#f6f9f9"/></g><path d="m170.34 220.099c-41.722 38.158 10.168 131.822-45.905 152.889-61.399-33.831-102.988-99.165-102.988-174.214 0-87.483 56.516-161.77 135.047-188.328 0 0 0-.01.01 0 1.04.34 40.682 13.763 24.828 56.887-19.821 53.91 56.042 91.439-10.992 152.766z" fill="#c8ea73"/><path d="m181.332 67.333c15.854-43.124-23.787-56.547-24.828-56.887-.01-.01-.01 0-.01 0-3.693 1.249-7.337 2.604-10.928 4.06 11.017 6.653 27.611 22.294 16.385 52.827-19.821 53.91 56.042 91.439-10.992 152.766-38.825 35.508 3.395 119.068-35.734 147.481 3.018 1.881 6.087 3.688 9.21 5.408 56.073-21.067 4.182-114.731 45.905-152.889 67.034-61.327-8.829-98.856 10.992-152.766z" fill="#9bd069"/><path d="m390.871 96.786c-62.099 47.657-123.735-25.013-142.536-38.312-22.19-15.69 0-56.506 0-56.506 60.585 8.581 112.393 44.473 142.536 94.818z" fill="#c8ea73"/><path d="m362.541 96.786c2.353 3.928 4.571 7.946 6.655 12.044 7.174-2.57 14.421-6.477 21.675-12.044-30.143-50.345-81.951-86.237-142.536-94.818 0 0-1.119 2.06-2.602 5.427 49.404 13.873 91.031 46.338 116.808 89.391z" fill="#9bd069"/></g></svg>