<svg id="Capa_1" enable-background="new 0 0 511.999 511.999" height="512" viewBox="0 0 511.999 511.999" width="512" xmlns="http://www.w3.org/2000/svg"><g><path d="m418.054 162.089c-17.917-92.502-99.335-162.089-196.775-162.089-58.866 0-113.624 25.555-151.449 69.138-2.715 3.128-2.38 7.865.748 10.58s7.865 2.381 10.58-.748c21.061-24.267 48.026-42.645 78.102-53.314 4.149 1.869 13.167 6.822 17.649 16.134 3.778 7.85 3.634 17.433-.429 28.483-8.708 23.685-.464 44.674 6.81 63.191 10.539 26.83 19.641 50.001-15.503 82.152-21.363 19.538-20.498 50.204-19.661 79.859.968 34.332.092 56.378-19.353 65.719-57.42-33.106-92.954-94.35-92.954-160.744 0-34.779 9.687-68.682 28.013-98.043 2.193-3.514 1.123-8.14-2.392-10.333-3.513-2.194-8.14-1.124-10.333 2.391-19.814 31.746-30.288 68.396-30.288 105.985 0 110.052 89.216 200.459 200.46 200.459 43.96 0 87.035-14.635 121.841-41.295 5.917 2.573 12.136 4.646 18.624 6.132v9.33h-5.753c-4.143 0-7.5 3.357-7.5 7.5v50.968c0 4.143 3.357 7.5 7.5 7.5s7.5-3.357 7.5-7.5v-17.984h43.943v59.468c0 12.115-9.856 21.972-21.972 21.972s-21.972-9.856-21.972-21.972v-11.496c0-4.143-3.357-7.5-7.5-7.5s-7.5 3.357-7.5 7.5v11.496c0 20.387 16.585 36.972 36.972 36.972s36.972-16.585 36.972-36.972v-92.45c0-4.143-3.357-7.5-7.5-7.5h-5.753v-9.33c47.553-10.912 81.998-53.444 81.998-103.036.001-48.018-31.653-87.244-73.125-100.623zm-41.278-62.687c-44.367 28.296-88.215-10.353-112.22-31.517-4.787-4.222-8.568-7.556-11.667-9.748-12.069-8.534-4.2-30.716.048-40.448 52.003 8.915 96.294 39.462 123.839 81.713zm-155.497 286.508c-26.638 0-53.009-5.773-77.061-16.752 7.97-6.358 13.345-15.263 16.274-26.933 3.559-14.18 3.085-30.952 2.628-47.173-.742-26.283-1.509-53.461 14.791-68.369 42.749-39.109 30.313-70.77 19.341-98.704-6.908-17.587-13.434-34.198-6.693-52.531 5.533-15.051 5.472-28.599-.183-40.267-3.133-6.465-7.608-11.434-12.092-15.161 14.009-3.329 28.407-5.02 42.995-5.02 5.406 0 10.826.236 16.203.7-1.531 3.89-3.149 8.647-4.314 13.757-5.372 23.564 3.049 35.263 11.059 40.927 2.441 1.728 6.133 4.982 10.408 8.752 13.018 11.478 32.689 28.823 56.13 38.396 11.389 4.65 22.459 6.973 33.171 6.973 14.176 0 27.719-4.085 40.529-12.208 7.868 14.515 13.7 29.912 17.429 45.964-5.873-.91-11.868-1.337-17.939-1.254-55.885.779-101.611 45.088-104.101 100.873-1.731 38.775 17.552 74.091 48.605 93.928-31.395 22.344-68.216 34.102-107.18 34.102zm142.212 14.65v-10.482h43.943v10.482zm41.523-49.25c-6.276 1.379-10.832 7.078-10.832 13.551v10.217h-17.438v-10.278c0-6.534-4.489-12.089-10.918-13.509-42.697-9.418-72.976-48.169-70.987-92.744 2.137-47.859 41.372-85.873 89.325-86.543 50.322-.721 92.016 39.767 92.016 90.708 0 43.169-30.314 79.626-71.166 88.598z"/><path d="m450.253 270.407c-4.037-.956-8.071 1.54-9.027 5.568-6.146 25.941-29.077 44.059-55.763 44.059-31.607 0-57.322-25.715-57.322-57.323 0-31.607 25.715-57.322 57.322-57.322 26.687 0 49.616 18.117 55.763 44.059.956 4.031 4.997 6.522 9.027 5.568 4.03-.955 6.523-4.996 5.568-9.027-7.756-32.736-36.688-55.6-70.358-55.6-39.879 0-72.322 32.443-72.322 72.322s32.443 72.323 72.322 72.323c33.67 0 62.603-22.863 70.358-55.6.955-4.031-1.538-8.072-5.568-9.027z"/></g></svg>